<svg id="Layer_1" data-name="Layer 1" xmlns="http://www.w3.org/2000/svg" viewBox="0 0 64 64"><defs><style>.cls-1{fill:#b4d380;}.cls-2{fill:#e6e9ed;}.cls-3{fill:#fdd870;}.cls-4{fill:#1e1814;}</style></defs><path class="cls-1" d="M41.59,45.59a4.83,4.83,0,0,1,0,6.82l-8.18,8.18a4.83,4.83,0,0,1-6.82,0L2.41,36.41a4.83,4.83,0,0,1,0-6.82l8.18-8.18a4.83,4.83,0,0,1,6.82,0L26,30Z"/><rect class="cls-2" x="24.14" y="43.84" width="12.73" height="11.31" transform="translate(-26.07 36.06) rotate(-45)"/><rect class="cls-2" x="10.14" y="25.6" width="12.73" height="19.8" transform="translate(-20.27 22.06) rotate(-45)"/><path class="cls-3" d="M49,2A12,12,0,1,1,37,14,12,12,0,0,1,49,2Z"/><path class="cls-4" d="M49,19a2,2,0,0,1-2-2H45a4,4,0,0,0,3,3.86V23h2V21h3V17a4,4,0,0,0-4-4,2,2,0,0,1-2-2V9h2a2,2,0,0,1,2,2h2a4,4,0,0,0-3-3.86V5H48V7H45v4a4,4,0,0,0,4,4,2,2,0,0,1,2,2v2Z"/><rect class="cls-4" x="54" y="13" width="2" height="2"/><rect class="cls-4" x="42" y="13" width="2" height="2"/><path class="cls-4" d="M30,59.41,40.41,49,31,39.59,20.59,50Zm2.09-9.91L30.5,51.09,28.91,49.5l1.59-1.59Zm-.18-3,1.59-1.59,1.59,1.59L33.5,48.09Zm1.59,4.41L34.59,52,33,53.59,31.91,52.5ZM29.09,52.5,27.5,54.09,25.91,52.5l1.59-1.59ZM27.5,48.09,26.41,47,28,45.41l1.09,1.09ZM26.09,49.5,24.5,51.09,23.41,50,25,48.41Zm2.82,6,1.59-1.59L31.59,55,30,56.59ZM36,50.59,34.91,49.5l1.59-1.59L37.59,49ZM32.09,43.5,30.5,45.09,29.41,44,31,42.41Z"/><path class="cls-4" d="M3.59,33,19,48.41,29.41,38,14,22.59Zm11.5-6.5L13.5,28.09,12.41,27,14,25.41ZM19.5,40.09,17.91,38.5l1.59-1.59,1.59,1.59Zm3-.18L23.59,41,22,42.59,20.91,41.5Zm-9-9,1.59,1.59L13.5,34.09,11.91,32.5Zm-3,.18L9.41,30,11,28.41l1.09,1.09Zm6,2.82,1.59,1.59L16.5,37.09,14.91,35.5ZM12.09,35.5,10.5,37.09,8.91,35.5l1.59-1.59Zm1.41,1.41,1.59,1.59L13.5,40.09,11.91,38.5Zm3,3,1.59,1.59L16.5,43.09,14.91,41.5Zm4.41-4.41,1.59-1.59,1.59,1.59L22.5,37.09ZM19.5,34.09,17.91,32.5l1.59-1.59,1.59,1.59Zm-3-3L14.91,29.5l1.59-1.59,1.59,1.59ZM8,31.41,9.09,32.5,7.5,34.09,6.41,33ZM17.91,44.5l1.59-1.59L20.59,44,19,45.59ZM25,39.59,23.91,38.5l1.59-1.59L26.59,38Z"/><path class="cls-4" d="M38.67,38.09a3.09,3.09,0,0,0,2.21.91A3.12,3.12,0,0,0,44,35.88a3.09,3.09,0,0,0-.91-2.21L26.33,16.91a1.12,1.12,0,1,1,1.58-1.58L38,25.41l2-2a13.1,13.1,0,1,0-1.34-1.5l-.69.7-8.67-8.68A3.09,3.09,0,0,0,27.12,13,3.12,3.12,0,0,0,24,16.12a3.09,3.09,0,0,0,.91,2.21L41.67,35.09a1.12,1.12,0,1,1-1.58,1.58L29,25.59l-3,3-7.88-7.88a5.82,5.82,0,0,0-8.24,0L1.71,28.88a5.82,5.82,0,0,0,0,8.24L25.88,61.29a5.82,5.82,0,0,0,8.24,0l8.17-8.17a5.82,5.82,0,0,0,0-8.24L27.41,30,29,28.41ZM49,3A11,11,0,1,1,38,14,11,11,0,0,1,49,3ZM42,49a3.84,3.84,0,0,1-1.12,2.71l-8.17,8.17a3.94,3.94,0,0,1-5.42,0L3.12,35.71a3.84,3.84,0,0,1,0-5.42l8.17-8.17a3.84,3.84,0,0,1,5.42,0L40.88,46.29A3.84,3.84,0,0,1,42,49Z"/><polygon class="cls-4" points="48 39 46 39 46 48 55 48 55 46 48 46 48 39"/><rect class="cls-4" x="47.34" y="37" width="11.31" height="2" transform="translate(-11.35 48.61) rotate(-45)"/><rect class="cls-4" x="50.34" y="40" width="11.31" height="2" transform="translate(-12.59 51.61) rotate(-45)"/><polygon class="cls-4" points="23 12 25 12 25 3 16 3 16 5 23 5 23 12"/><rect class="cls-4" x="9.34" y="9" width="11.31" height="2" transform="translate(-2.68 13.54) rotate(-45)"/><rect class="cls-4" x="12.34" y="12" width="11.31" height="2" transform="translate(-3.92 16.54) rotate(-45)"/></svg>